<svg width="257" height="133" viewBox="0 0 257 133" fill="none" xmlns="http://www.w3.org/2000/svg">
<path d="M241.923 1.01119C241.62 0.843258 241.279 0.755157 240.932 0.755157H15.9307C15.5753 0.755157 15.226 0.847719 14.9172 1.02373L1.93326 8.42428C1.29443 8.7884 0.900009 9.46721 0.900009 10.2025V130.54C0.900009 131.671 1.81641 132.587 2.94682 132.587H254.078C255.209 132.587 256.125 131.671 256.125 130.54V10.0788C256.125 9.33428 255.721 8.6485 255.069 8.28796L241.923 1.01119Z" fill="url(#paint0_linear_19424_24217)"/>
<rect opacity="0.2" x="0.875" y="45.8387" width="254.433" height="35.3672" fill="black"/>
<path d="M30.0383 70.374V68.2158H38.6157C39.1691 68.2158 39.4458 67.9391 39.4458 67.3858V65.3936C39.4458 64.8587 39.2152 64.5543 38.754 64.4805L33.3586 63.3738C31.1451 62.9311 30.0383 61.4462 30.0383 58.9191V57.3696C30.0383 54.2707 31.5878 52.7212 34.6867 52.7212H41.0229L42.8767 54.16V56.3182H34.8527C34.2993 56.3182 34.0227 56.5949 34.0227 57.1483V58.9467C34.0227 59.4632 34.2532 59.7676 34.7144 59.8598L40.1098 60.9389C42.3233 61.3816 43.4301 62.8665 43.4301 65.3936V67.1644C43.4301 70.2633 41.8806 71.8128 38.7817 71.8128H31.8922L30.0383 70.374ZM47.1347 71.8128V52.7212H51.119V68.2158H59.3643V71.8128H47.1347ZM62.0164 67.1644V57.3696C62.0164 54.2707 63.5659 52.7212 66.6648 52.7212H72.9733C76.0722 52.7212 77.6217 54.2707 77.6217 57.3696V67.1644C77.6217 70.2633 76.0722 71.8128 72.9733 71.8128H66.6648C63.5659 71.8128 62.0164 70.2633 62.0164 67.1644ZM66.0008 67.3858C66.0008 67.9391 66.2775 68.2158 66.8308 68.2158H72.8073C73.3607 68.2158 73.6374 67.9391 73.6374 67.3858V57.1483C73.6374 56.5949 73.3607 56.3182 72.8073 56.3182H66.8308C66.2775 56.3182 66.0008 56.5949 66.0008 57.1483V67.3858ZM80.2781 56.3182V52.7212H95.8834V56.3182H90.0729V71.8128H86.0886V56.3182H80.2781ZM105.472 71.8128V52.7212H110.231L115.599 64.1762L120.966 52.7212H125.725V71.8128H121.741V59.7491L117.259 69.3226H113.938L109.456 59.7491V71.8128H105.472ZM128.506 71.0657L134.178 52.7212H140.265L145.937 71.0657L145.439 71.8128H142.119L140.957 67.9391H133.486L132.324 71.8128H129.004L128.506 71.0657ZM134.565 64.3422H139.878L137.443 56.3182H137L134.565 64.3422ZM148.428 67.1644V57.3696C148.428 54.2707 149.977 52.7212 153.076 52.7212H160.464L162.317 54.16V56.3182H153.242C152.689 56.3182 152.412 56.5949 152.412 57.1483V67.3858C152.412 67.9391 152.689 68.2158 153.242 68.2158H162.317V70.374L160.464 71.8128H153.076C149.977 71.8128 148.428 70.2633 148.428 67.1644ZM165.97 71.8128V52.7212H169.955V60.1918H177.038V52.7212H181.022V71.8128H177.038V63.7888H169.955V71.8128H165.97ZM185.56 71.8128V52.7212H189.545V71.8128H185.56ZM194.072 71.8128V52.7212H198.388L205.969 65.2552V52.7212H209.954V71.8128H205.637L198.056 59.2788V71.8128H194.072ZM214.499 71.8128V52.7212H227.559V56.3182H218.483V60.1918H226.729V63.7888H218.483V68.2158H227.559V71.8128H214.499Z" fill="white"/>
<path d="M89.3671 21.8474V17.0611H91.1846C92.4887 17.0611 93.1407 17.7132 93.1407 19.0173V19.8913C93.1407 21.1954 92.4887 21.8474 91.1846 21.8474H89.3671ZM90.366 20.9457H91.2401C91.8412 20.9457 92.1418 20.6451 92.1418 20.0439V18.8647C92.1418 18.2635 91.8412 17.9629 91.2401 17.9629H90.366V20.9457ZM97.861 21.6602L99.283 17.0611H100.809L102.231 21.6602L102.106 21.8474H101.274L100.982 20.8763H99.1096L98.8182 21.8474H97.9858L97.861 21.6602ZM99.3801 19.9745H100.712L100.102 17.9629H99.9905L99.3801 19.9745ZM107.087 21.8474V17.0611H108.086V21.8474H107.087ZM113.383 21.8474V17.0611H114.382V20.9457H116.449V21.8474H113.383ZM120.278 17.2484L120.396 17.0611H121.249L122.289 19.0936L123.33 17.0611H124.183L124.301 17.2484L122.789 20.1549V21.8474H121.79V20.1549L120.278 17.2484ZM134.779 21.4867V20.9457H136.929C137.068 20.9457 137.137 20.8763 137.137 20.7376V20.2381C137.137 20.104 137.079 20.0277 136.964 20.0092L135.611 19.7318C135.056 19.6208 134.779 19.2485 134.779 18.6149V18.2265C134.779 17.4496 135.167 17.0611 135.944 17.0611H137.532L137.997 17.4218V17.9629H135.986C135.847 17.9629 135.777 18.0323 135.777 18.171V18.6219C135.777 18.7514 135.835 18.8277 135.951 18.8508L137.304 19.1213C137.858 19.2323 138.136 19.6046 138.136 20.2381V20.6821C138.136 21.459 137.748 21.8474 136.971 21.8474H135.243L134.779 21.4867ZM143.227 21.8474V17.0611H145.557C146.334 17.0611 146.723 17.4496 146.723 18.2265V19.156C146.723 19.9329 146.334 20.3214 145.557 20.3214H144.226V21.8474H143.227ZM144.226 19.4196H145.516C145.655 19.4196 145.724 19.3502 145.724 19.2115V18.171C145.724 18.0323 145.655 17.9629 145.516 17.9629H144.226V19.4196ZM151.812 21.8474V17.0611H152.811V21.8474H151.812ZM158.108 21.8474V17.0611H159.19L161.091 20.2034V17.0611H162.09V21.8474H161.008L159.107 18.7051V21.8474H158.108Z" fill="#FFDD15"/>
<path d="M54.5082 110.288V106.989C54.5082 105.945 55.0302 105.423 56.074 105.423H58.7676L59.392 105.908V106.635H56.1299C55.9435 106.635 55.8503 106.728 55.8503 106.915V110.363C55.8503 110.549 55.9435 110.643 56.1299 110.643H58.2363V109.151H57.006V107.94H59.5784V111.854H56.074C55.0302 111.854 54.5082 111.332 54.5082 110.288ZM60.9181 111.854V105.423H65.3172V106.635H62.2602V107.94H65.0376V109.151H62.2602V110.643H65.3172V111.854H60.9181ZM66.0024 106.635V105.423H71.2591V106.635H69.3018V111.854H67.9597V106.635H66.0024ZM74.4889 111.854V105.423H77.5273C78.5712 105.423 79.0931 105.945 79.0931 106.989V107.548C79.0931 107.76 79.031 107.94 78.9067 108.089L78.5805 108.48L78.9719 108.807C79.177 108.974 79.2795 109.223 79.2795 109.552V110.288C79.2795 111.332 78.7576 111.854 77.7137 111.854H74.4889ZM75.831 110.643H77.6578C77.8442 110.643 77.9374 110.549 77.9374 110.363V109.431C77.9374 109.245 77.8442 109.151 77.6578 109.151H75.831V110.643ZM75.831 107.94H77.4714C77.6578 107.94 77.751 107.847 77.751 107.66V106.915C77.751 106.728 77.6578 106.635 77.4714 106.635H75.831V107.94ZM80.5689 111.854V105.423H84.9681V106.635H81.911V107.94H84.6885V109.151H81.911V110.643H84.9681V111.854H80.5689ZM86.1938 111.854V105.423H89.3255C90.3693 105.423 90.8913 105.945 90.8913 106.989V108.052C90.8913 108.828 90.6023 109.313 90.0245 109.506L91.0777 111.575L90.9192 111.854H89.7635L88.6264 109.617H87.536V111.854H86.1938ZM87.536 108.406H89.2695C89.4559 108.406 89.5491 108.313 89.5491 108.126V106.915C89.5491 106.728 89.4559 106.635 89.2695 106.635H87.536V108.406ZM91.641 105.675L91.7994 105.423H92.9458L94.3438 108.154L95.7419 105.423H96.8883L97.0467 105.675L95.0149 109.58V111.854H93.6728V109.58L91.641 105.675ZM96.6751 113.01L97.225 110.521H98.446L98.5858 110.717L97.6351 113.252L96.6751 113.01ZM99.8284 111.854V105.423H102.867C103.911 105.423 104.433 105.945 104.433 106.989V107.548C104.433 107.76 104.37 107.94 104.246 108.089L103.92 108.48L104.311 108.807C104.516 108.974 104.619 109.223 104.619 109.552V110.288C104.619 111.332 104.097 111.854 103.053 111.854H99.8284ZM101.17 110.643H102.997C103.184 110.643 103.277 110.549 103.277 110.363V109.431C103.277 109.245 103.184 109.151 102.997 109.151H101.17V110.643ZM101.17 107.94H102.811C102.997 107.94 103.09 107.847 103.09 107.66V106.915C103.09 106.728 102.997 106.635 102.811 106.635H101.17V107.94ZM105.908 111.854V105.423H107.25V111.854H105.908ZM108.235 106.635V105.423H113.492V106.635H111.534V111.854H110.192V106.635H108.235ZM114.389 110.288V106.989C114.389 105.945 114.911 105.423 115.955 105.423H118.443L119.068 105.908V106.635H116.011C115.824 106.635 115.731 106.728 115.731 106.915V110.363C115.731 110.549 115.824 110.643 116.011 110.643H119.068V111.37L118.443 111.854H115.955C114.911 111.854 114.389 111.332 114.389 110.288ZM120.205 110.288V106.989C120.205 105.945 120.727 105.423 121.771 105.423H123.896C124.94 105.423 125.462 105.945 125.462 106.989V110.288C125.462 111.332 124.94 111.854 123.896 111.854H121.771C120.727 111.854 120.205 111.332 120.205 110.288ZM121.547 110.363C121.547 110.549 121.64 110.643 121.827 110.643H123.84C124.026 110.643 124.12 110.549 124.12 110.363V106.915C124.12 106.728 124.026 106.635 123.84 106.635H121.827C121.64 106.635 121.547 106.728 121.547 106.915V110.363ZM126.897 111.854V105.423H128.239V111.854H126.897ZM129.764 111.854V105.423H131.218L133.772 109.645V105.423H135.114V111.854H133.66L131.106 107.632V111.854H129.764ZM138.698 110.344V109.543C138.698 109.22 138.8 108.971 139.005 108.797L139.397 108.471L139.071 108.08C138.946 107.93 138.884 107.75 138.884 107.539V106.933C138.884 105.927 139.388 105.423 140.394 105.423H142.09L142.65 105.843V106.542H140.469C140.27 106.542 140.17 106.641 140.17 106.84V107.642C140.17 107.84 140.27 107.94 140.469 107.94H144.048V109.058H143.116V111.854H140.208C139.201 111.854 138.698 111.351 138.698 110.344ZM139.984 110.438C139.984 110.636 140.083 110.736 140.282 110.736H141.829V109.058H140.282C140.083 109.058 139.984 109.158 139.984 109.356V110.438ZM147.422 111.854V105.423H149.025L150.833 109.282L152.641 105.423H154.244V111.854H152.902V107.791L151.392 111.015H150.274L148.764 107.791V111.854H147.422ZM155.181 111.603L157.091 105.423H159.142L161.053 111.603L160.885 111.854H159.766L159.375 110.549H156.858L156.467 111.854H155.349L155.181 111.603ZM157.222 109.338H159.011L158.191 106.635H158.042L157.222 109.338ZM161.985 111.854V105.423H163.439L165.992 109.645V105.423H167.335V111.854H165.881L163.327 107.632V111.854H161.985ZM168.269 105.675L168.428 105.423H169.574L170.972 108.154L172.37 105.423H173.516L173.675 105.675L171.643 109.58V111.854H170.301V109.58L168.269 105.675ZM176.848 111.854V105.423H178.451L180.259 109.282L182.067 105.423H183.67V111.854H182.328V107.791L180.818 111.015H179.7L178.19 107.791V111.854H176.848ZM185.11 110.288V106.989C185.11 105.945 185.632 105.423 186.676 105.423H188.801C189.845 105.423 190.367 105.945 190.367 106.989V110.288C190.367 111.332 189.845 111.854 188.801 111.854H186.676C185.632 111.854 185.11 111.332 185.11 110.288ZM186.452 110.363C186.452 110.549 186.546 110.643 186.732 110.643H188.745C188.932 110.643 189.025 110.549 189.025 110.363V106.915C189.025 106.728 188.932 106.635 188.745 106.635H186.732C186.546 106.635 186.452 106.728 186.452 106.915V110.363ZM191.802 111.854V105.423H194.934C195.978 105.423 196.5 105.945 196.5 106.989V108.052C196.5 108.828 196.211 109.313 195.633 109.506L196.686 111.575L196.528 111.854H195.372L194.235 109.617H193.144V111.854H191.802ZM193.144 108.406H194.878C195.064 108.406 195.158 108.313 195.158 108.126V106.915C195.158 106.728 195.064 106.635 194.878 106.635H193.144V108.406ZM197.846 111.854V105.423H202.245V106.635H199.188V107.94H201.965V109.151H199.188V110.643H202.245V111.854H197.846ZM203.312 111.854V110.521H204.701V111.854H203.312Z" fill="#FFDD15"/>
<defs>
<linearGradient id="paint0_linear_19424_24217" x1="128.513" y1="0.755157" x2="128.513" y2="132.587" gradientUnits="userSpaceOnUse">
<stop stop-color="#222222"/>
<stop offset="1" stop-color="#151515"/>
</linearGradient>
</defs>
</svg>
